# xmcd
#
# Track frame offsets: 
#        150
#        20454
#        41544
#        61687
#        87632
#        105073
#        127887
#        145734
#        165013
#        183335
#
# Disc length: 2684 seconds
#
# Revision: 0
# Processed by: cddbd v1.5.2PL0 Copyright (c) Steve Scherf et al.
# Submitted via: ExactAudioCopy v0.95a5
#
DISCID=6b0a7a0a
DTITLE=Bria Valente - Elixer
DYEAR=2009
DGENRE=Funk
TTITLE0=Here I come
TTITLE1=All this Love
TTITLE2=Home
TTITLE3=Something U already know
TTITLE4=Everytime
TTITLE5=2nite
TTITLE6=Another Boy
TTITLE7=Kept Woman
TTITLE8=Immersion
TTITLE9=Elixer
EXTD=
EXTT0=
EXTT1=
EXTT2=
EXTT3=
EXTT4=
EXTT5=
EXTT6=
EXTT7=
EXTT8=
EXTT9=
PLAYORDER=
